<svg width="1440" height="960" viewBox="0 0 1440 960" fill="none" xmlns="http://www.w3.org/2000/svg">
  <rect width="1440" height="960" fill="#E6FFFB"/>
  <circle cx="1270" cy="120" r="180" fill="#99F6E4" fill-opacity="0.7"/>
  <circle cx="180" cy="860" r="220" fill="#CCFBF1"/>
  <rect x="96" y="72" width="1248" height="816" rx="36" fill="#FFFFFF"/>
  <rect x="96" y="72" width="1248" height="96" rx="36" fill="#042F2E"/>
  <circle cx="156" cy="120" r="12" fill="#F87171"/>
  <circle cx="192" cy="120" r="12" fill="#FACC15"/>
  <circle cx="228" cy="120" r="12" fill="#4ADE80"/>
  <rect x="288" y="102" width="260" height="36" rx="18" fill="#134E4A"/>
  <rect x="132" y="216" width="284" height="600" rx="28" fill="#F0FDFA"/>
  <rect x="164" y="248" width="188" height="18" rx="9" fill="#0F766E"/>
  <rect x="164" y="294" width="220" height="14" rx="7" fill="#99F6E4"/>
  <rect x="164" y="332" width="194" height="14" rx="7" fill="#99F6E4"/>
  <rect x="164" y="370" width="162" height="14" rx="7" fill="#99F6E4"/>
  <rect x="164" y="446" width="220" height="96" rx="20" fill="#CCFBF1"/>
  <rect x="164" y="566" width="220" height="96" rx="20" fill="#CCFBF1"/>
  <rect x="452" y="216" width="856" height="152" rx="28" fill="#042F2E"/>
  <rect x="500" y="264" width="184" height="18" rx="9" fill="#5EEAD4"/>
  <rect x="500" y="304" width="536" height="30" rx="15" fill="#FFFFFF"/>
  <rect x="1106" y="252" width="154" height="82" rx="20" fill="#FACC15"/>
  <path d="M1164 293L1188 317L1234 271" stroke="#0F172A" stroke-width="14" stroke-linecap="round" stroke-linejoin="round"/>
  <rect x="452" y="404" width="560" height="192" rx="28" fill="#F8FAFC" stroke="#CCFBF1" stroke-width="4"/>
  <rect x="488" y="440" width="158" height="18" rx="9" fill="#0F766E"/>
  <rect x="488" y="482" width="472" height="14" rx="7" fill="#99F6E4"/>
  <rect x="488" y="518" width="438" height="14" rx="7" fill="#CCFBF1"/>
  <rect x="488" y="554" width="212" height="14" rx="7" fill="#FACC15"/>
  <rect x="1036" y="404" width="272" height="192" rx="28" fill="#F8FAFC" stroke="#CCFBF1" stroke-width="4"/>
  <rect x="1072" y="440" width="112" height="18" rx="9" fill="#0F766E"/>
  <circle cx="1114" cy="520" r="36" fill="#0F766E"/>
  <path d="M1098 520L1108 530L1132 506" stroke="#F8FAFC" stroke-width="10" stroke-linecap="round" stroke-linejoin="round"/>
  <rect x="452" y="632" width="856" height="184" rx="28" fill="#F8FAFC" stroke="#CCFBF1" stroke-width="4"/>
  <rect x="488" y="670" width="188" height="18" rx="9" fill="#0F766E"/>
  <rect x="488" y="712" width="746" height="14" rx="7" fill="#99F6E4"/>
  <rect x="488" y="748" width="690" height="14" rx="7" fill="#CCFBF1"/>
  <rect x="488" y="784" width="366" height="14" rx="7" fill="#FACC15"/>
</svg>
